<?xml version="1.0" encoding="UTF-8" standalone="no"?>
<!-- Created with Inkscape (http://www.inkscape.org/) -->

<svg
   width="141.09747mm"
   height="83.127014mm"
   viewBox="0 0 141.09748 83.127015"
   version="1.1"
   id="svg1014"
   inkscape:version="1.1.1 (3bf5ae0d25, 2021-09-20)"
   sodipodi:docname="favicon.svg"
   xmlns:inkscape="http://www.inkscape.org/namespaces/inkscape"
   xmlns:sodipodi="http://sodipodi.sourceforge.net/DTD/sodipodi-0.dtd"
   xmlns="http://www.w3.org/2000/svg"
   xmlns:svg="http://www.w3.org/2000/svg">
  <sodipodi:namedview
     id="namedview1016"
     pagecolor="#ffffff"
     bordercolor="#666666"
     borderopacity="1.0"
     inkscape:pageshadow="2"
     inkscape:pageopacity="0.0"
     inkscape:pagecheckerboard="0"
     inkscape:document-units="mm"
     showgrid="false"
     inkscape:zoom="0.64052329"
     inkscape:cx="-92.112185"
     inkscape:cy="211.54578"
     inkscape:window-width="1920"
     inkscape:window-height="938"
     inkscape:window-x="0"
     inkscape:window-y="0"
     inkscape:window-maximized="1"
     inkscape:current-layer="layer1" />
  <defs
     id="defs1011" />
  <g
     inkscape:label="Layer 1"
     inkscape:groupmode="layer"
     id="layer1"
     transform="translate(-129.29349,-92.560238)">
    <path
       id="path43501"
       style="fill:#3737c8;fill-opacity:1;stroke-width:1.65173"
       d="m 226.77062,173.10517 h -7e-5 c 3.45538,1.7934 9.67253,2.57578 20.54018,2.582 13.73619,0.007 16.03849,-0.41579 19.40787,-3.58116 4.42751,-4.15948 4.80224,-7.48911 1.39097,-12.35944 -2.11386,-3.01796 -4.49192,-3.56173 -18.18719,-4.16102 -18.19397,-0.79571 -19.88799,-1.84355 -21.55973,-13.33574 l -1.14131,-7.84571 h 17.60577 c 16.49026,0 17.86273,-0.25724 21.66008,-4.05424 4.94648,-4.94645 5.06626,-7.42758 0.63092,-13.06616 -3.32439,-4.22662 -3.94394,-4.35208 -21.43677,-4.35208 H 227.6679 l 0.32337,-7.42776 c 0.38332,-8.804859 -2.83647,-12.943622 -10.06921,-12.943622 -9.36644,0 -10.14635,2.457966 -10.14635,31.978782 0,20.67387 0.57678,27.92509 2.55377,32.09075 3.01595,6.35559 9.54056,12.89381 16.44114,16.4754 z M 199.3587,113.64029 c -4.78308,0 -9.61155,1.16092 -13.99746,3.51156 l -5.48675,2.93849 -6.15744,-3.14576 c -13.32087,-6.79582 -30.65316,-2.03785 -39.05384,10.65656 -1.88307,2.84561 -3.11762,5.28021 -3.87738,8.49848 -0.75971,3.21824 -1.07757,7.16144 -1.3412,13.30243 -0.36706,8.55237 -0.1148,14.27674 1.30461,18.27716 1.41943,4.00041 4.4278,6.14623 8.32779,6.59634 2.23795,0.25833 4.20606,0.19247 5.9501,-0.4267 1.74411,-0.6191 3.20534,-1.84217 4.20656,-3.52374 2.00248,-3.36318 2.54838,-8.4015 2.54838,-16.02148 0,-7.2793 0.63148,-11.93945 1.88983,-14.46075 0.62918,-1.26069 1.35633,-1.99929 2.30445,-2.49956 0.94817,-0.5003 2.1901,-0.75593 3.86515,-0.75593 1.85693,0 3.26579,0.24087 4.30408,0.71934 1.03835,0.47846 1.77125,1.16153 2.41422,2.34103 1.28588,2.35902 1.92651,6.85785 1.92651,14.0828 0,7.44016 0.50254,12.42316 2.21911,15.86296 0.85832,1.71992 2.08853,3.04996 3.63347,3.86515 1.54489,0.81516 3.33014,1.12174 5.32828,1.12174 2.13915,0 4.00578,-0.27083 5.63314,-1.0242 1.62729,-0.75339 2.94823,-2.02123 3.85292,-3.71885 1.80952,-3.3952 2.2679,-8.35322 2.26786,-15.96048 0,-7.48958 0.5612,-12.06102 1.73143,-14.38764 0.58495,-1.16327 1.22991,-1.78774 2.17031,-2.23126 0.94044,-0.4436 2.25194,-0.67062 4.02369,-0.67062 3.07052,0 4.82412,0.56539 6.04769,1.91427 1.22359,1.34888 2.09063,3.85784 2.47513,8.10827 l 0.18295,2.13377 1.9752,-0.84132 c 0.31838,-0.13585 0.64795,-0.28618 0.97543,-0.43895 2.33529,-0.20152 3.48776,-0.35615 3.90172,-0.35363 h 0.0113 c 0.55753,0 1.00996,0.24741 4.48701,1.09736 2.99607,0.7326 3.76518,2.30963 3.85289,4.49917 0.0881,2.18955 -0.96021,4.93015 -2.29222,6.66952 l -0.64627,0.8535 0.56062,0.91447 c 0.25471,0.41337 0.23842,0.50994 0.21963,0.57312 -0.55624,1.82034 -1.05058,3.23873 -1.51195,4.31628 l -0.76806,1.80454 1.9386,0.34138 c 1.83221,0.32672 3.61133,0.75972 5.34051,1.35343 l 1.51193,0.5243 0.48754,-1.52414 c 1.21391,-3.84952 1.33303,-9.52163 1.04859,-18.53322 -0.31152,-9.8829 -0.81045,-15.81486 -2.87747,-20.43526 -2.06704,-4.62039 -5.66083,-7.57911 -11.5101,-11.40035 -4.12959,-2.69791 -8.98172,-3.78103 -13.83894,-4.06024 v -0.46338 z m 0,3.12138 c 4.84737,0.007 9.62946,1.35696 13.69262,4.01147 5.72512,3.74013 8.65123,6.2156 10.37615,10.07133 1.72489,3.85573 2.2877,9.44252 2.59707,19.25258 0.0181,0.6659 -0.0881,0.67589 -0.0729,1.30464 -0.53754,-2.74483 -2.23424,-5.35772 -5.80378,-6.23058 -3.37478,-0.82497 -3.97488,-1.18114 -5.21858,-1.1827 h -0.0113 c -0.95849,-0.005 -1.80064,0.17141 -4.4504,0.39014 l -0.13427,0.0113 c -0.49877,-3.24492 -1.04698,-6.23721 -2.63363,-7.98634 -1.9716,-2.17342 -4.86147,-2.93852 -8.35213,-2.93852 -2.02828,0 -3.80229,0.24425 -5.35274,0.97545 -1.55037,0.73128 -2.79742,1.98356 -3.63346,3.64568 -1.67199,3.32428 -2.06057,8.17047 -2.06063,15.78979 0,7.45752 -0.61992,12.07975 -1.90202,14.48517 -0.641,1.20271 -1.36462,1.88512 -2.40204,2.36542 -1.03743,0.48032 -2.45296,0.73159 -4.32847,0.73159 -1.67502,0 -2.92918,-0.26787 -3.87733,-0.76816 -0.94814,-0.50029 -1.66313,-1.22669 -2.29226,-2.48733 -1.25831,-2.52132 -1.88988,-7.1938 -1.88988,-14.47298 0,-7.38409 -0.48261,-12.22768 -2.30445,-15.57032 -0.9111,-1.67134 -2.23274,-2.93569 -3.85299,-3.68227 -1.62023,-0.74662 -3.48409,-1.01201 -5.60873,-1.01201 -1.99812,0 -3.78337,0.30658 -5.32826,1.12174 -1.54496,0.81517 -2.77517,2.14525 -3.63354,3.86515 -1.71671,3.43983 -2.21908,8.41053 -2.21908,15.85077 0,7.4421 -0.72681,12.10206 -2.10943,14.42419 -0.69121,1.16108 -1.46197,1.7804 -2.56044,2.17033 -1.0985,0.38996 -2.59088,0.50634 -4.54797,0.28039 -3.13951,-0.36235 -4.62608,-1.36613 -5.75503,-4.54794 -1.12894,-3.18181 -1.48324,-8.67511 -1.12177,-17.09445 0.2616,-6.08775 0.58435,-9.87231 1.25586,-12.71719 0.67161,-2.84487 1.65465,-4.80313 3.43838,-7.49862 7.50088,-11.33458 23.22546,-15.61812 35.0302,-9.59581 l 7.62054,3.88953 6.92562,-3.70662 c 3.92044,-2.10121 8.24281,-3.14579 12.5221,-3.14579 z m 26.4464,37.51755 c 0.0113,4.97225 -0.062,9.48242 -0.62177,11.8149 -0.7041,-0.19677 -1.4118,-0.38047 -2.12163,-0.53652 0.33586,-0.91728 0.66172,-1.73942 1.02427,-2.92631 0.25034,-0.81917 -0.12363,-1.45548 -0.37831,-2.12154 1.20093,-1.76188 1.81672,-3.97103 2.09722,-6.2306 z" />
    <path
       style="opacity:0.5;fill:#3737c8;fill-opacity:1;stroke-width:0.264583"
       d="m 144.65491,170.72944 c 1.98234,-1.09499 3.09033,-3.6565 3.63961,-8.41428 0.14286,-1.23739 0.37616,-5.64308 0.51846,-9.79042 0.16492,-4.80667 0.40428,-8.21212 0.66019,-9.39271 0.99704,-4.59969 2.4477,-6.88638 5.28725,-8.33437 1.79876,-0.91725 1.84764,-0.92589 5.14942,-0.9093 2.78088,0.014 3.57811,0.11299 4.80962,0.59743 2.15693,0.84846 3.51267,2.13606 4.59185,4.36106 1.40974,2.90652 1.71911,4.95315 2.00755,13.28101 0.3917,11.30892 0.91274,14.68741 2.65588,17.22097 1.18094,1.71644 2.81597,2.29467 6.17216,2.1828 4.18017,-0.13934 5.76508,-1.20014 6.85341,-4.5871 0.81483,-2.53578 1.01809,-4.54949 1.25525,-12.43542 0.25792,-8.57636 0.35835,-9.88105 0.97697,-12.69252 1.19962,-5.45198 3.68626,-7.69187 8.88344,-8.00193 1.56645,-0.0935 3.16462,-0.0264 4.1933,0.176 1.64056,0.32276 3.99934,1.33734 4.32167,1.85888 0.0912,0.1475 0.39724,0.39208 0.68018,0.5435 0.50496,0.27025 0.51443,0.10503 0.51443,-8.97236 V 118.173 l -2.44739,-0.57895 c -4.91046,-1.16159 -9.81721,-0.93133 -14.72605,0.69106 -1.12959,0.37334 -4.00821,1.72486 -6.39695,3.00339 l -4.34315,2.32461 -4.63021,-2.30731 c -2.54661,-1.26901 -5.37535,-2.56267 -6.28607,-2.87479 -6.48214,-2.22153 -14.30147,-1.6405 -20.8713,1.55088 -4.66797,2.26753 -8.09522,5.2244 -10.99525,9.48618 -3.42065,5.02685 -4.21685,8.5193 -4.68342,20.54313 -0.50395,12.9874 0.69058,19.01395 4.08837,20.6263 2.29462,1.08888 6.23519,1.13349 8.12078,0.0919 z"
       id="path1710" />
  </g>
</svg>
